<?xml version="1.0" standalone="no"?>
<!DOCTYPE svg PUBLIC "-//W3C//DTD SVG 20010904//EN"
 "http://www.w3.org/TR/2001/REC-SVG-20010904/DTD/svg10.dtd">
<svg version="1.0" xmlns="http://www.w3.org/2000/svg"
 width="303.000000pt" height="230.000000pt" viewBox="0 0 303.000000 230.000000"
 preserveAspectRatio="xMidYMid meet">

<g transform="translate(0.000000,230.000000) scale(0.100000,-0.100000)"
fill="#000000" stroke="none">
<path d="M1721 2169 c-53 -9 -147 -55 -171 -84 -18 -21 -27 -19 -70 15 -66 53
-116 70 -206 70 -45 0 -99 -6 -120 -14 -112 -39 -202 -144 -224 -260 -33 -177
63 -337 319 -528 42 -32 120 -82 175 -112 l98 -54 72 32 c76 35 215 128 306
205 211 179 272 308 221 469 -60 186 -219 290 -400 261z m-353 -51 c25 -11 20
-12 -48 -19 -41 -3 -91 -13 -111 -22 -50 -21 -112 -79 -146 -135 -25 -42 -28
-57 -28 -137 0 -89 1 -92 44 -164 67 -114 167 -207 351 -328 90 -60 61 -54
-40 9 -280 172 -430 351 -430 514 0 59 33 142 76 193 79 92 229 132 332 89z
m521 -2 c22 -12 17 -14 -55 -18 -91 -5 -143 -28 -206 -88 -22 -22 -43 -40 -47
-40 -3 0 -14 11 -23 24 -15 21 -15 25 -2 44 18 27 91 70 147 88 48 16 147 10
186 -10z"/>
<path d="M465 1598 c-11 -6 -23 -16 -27 -22 -11 -16 -10 -74 2 -81 18 -11 10
-26 -20 -37 -47 -16 -66 -73 -38 -117 9 -14 8 -23 -5 -42 -34 -48 -23 -85 46
-157 221 -232 185 -207 456 -333 134 -62 245 -118 248 -125 2 -6 -10 -79 -26
-161 -17 -82 -31 -152 -31 -156 0 -3 7 -13 16 -21 22 -22 410 -24 439 -2 19
13 19 17 -3 162 -13 82 -36 241 -53 353 -33 225 -45 258 -122 332 -46 44 -84
64 -227 117 -58 22 -142 54 -188 71 -107 40 -127 40 -165 -3 l-31 -34 -28 36
c-15 21 -45 62 -67 92 -57 81 -115 140 -137 140 -10 0 -28 -6 -39 -12z m165
-182 l114 -154 99 -27 c55 -15 106 -29 115 -32 8 -4 13 -2 9 3 -3 5 -42 27
-87 49 -87 43 -108 71 -77 103 15 14 25 12 119 -21 356 -126 393 -146 447
-241 28 -49 35 -79 76 -357 25 -167 46 -317 48 -334 l2 -30 -193 -3 -193 -2 7
37 c3 21 20 96 36 167 16 71 25 133 21 137 -4 4 -96 49 -203 99 -349 163 -312
140 -445 282 -123 131 -144 167 -107 187 15 8 30 3 72 -25 29 -19 54 -33 56
-31 2 2 -28 34 -66 72 -69 69 -83 98 -58 123 21 21 36 13 98 -50 67 -70 67
-62 -2 64 -57 103 -62 139 -19 138 9 0 68 -70 131 -154z"/>
<path d="M2568 1600 c-9 -6 -40 -42 -70 -82 -29 -39 -68 -92 -87 -117 -43 -58
-54 -65 -63 -42 -8 24 -47 51 -71 51 -11 0 -70 -18 -131 -41 -349 -128 -341
-123 -413 -203 -69 -75 -68 -73 -133 -531 -17 -115 -33 -224 -36 -241 -11 -60
2 -64 235 -64 248 0 240 -3 222 98 -6 37 -21 106 -33 154 -11 47 -18 93 -15
100 2 8 76 47 163 87 277 129 343 161 356 175 83 84 236 254 246 273 14 26 8
58 -15 85 -14 16 -14 21 1 52 22 47 -3 106 -46 106 -19 0 -22 20 -9 55 5 11 4
32 -1 48 -15 42 -61 59 -100 37z m62 -45 c10 -12 6 -28 -25 -88 -21 -39 -47
-84 -57 -100 -37 -52 -13 -47 41 8 29 30 59 55 67 55 15 0 44 -27 44 -41 0 -6
-34 -46 -75 -89 -41 -43 -75 -81 -75 -84 0 -3 25 12 56 34 44 31 60 37 75 30
37 -20 33 -44 -14 -93 -12 -12 -65 -68 -117 -123 -101 -107 -93 -102 -350
-222 -292 -136 -281 -130 -276 -154 3 -13 19 -84 36 -157 16 -74 30 -141 30
-148 0 -10 -41 -13 -195 -13 l-194 0 4 28 c3 15 12 72 20 127 77 535 77 535
121 593 57 78 101 100 441 222 94 35 97 35 116 15 27 -27 8 -54 -66 -91 -38
-19 -79 -42 -91 -51 -24 -17 -35 -19 84 13 30 9 71 19 90 24 30 8 52 32 150
164 63 85 122 155 131 155 9 1 22 -6 29 -14z"/>
</g>
</svg>
